/* XPM */
static char *_6785_892b08bb46578f35e384045adc9b5da53edd2682902cc0d0f8fe3eaee3c72ee0[] = {
/* columns rows colors chars-per-pixel */
"64 64 250 2 ",
"   c #0E0000",
".  c #320000",
"X  c #373232",
"o  c #5A330B",
"O  c #502E0D",
"+  c #683603",
"@  c #6B3A0C",
"#  c #400700",
"$  c #694309",
"%  c #754A06",
"&  c #694717",
"*  c #754D17",
"=  c #7B541B",
"-  c #7A5419",
";  c #77510C",
":  c #7C5A23",
">  c #765929",
",  c #6A5327",
"<  c #7D652E",
"1  c #5F4428",
"2  c #8A5105",
"3  c #835B1C",
"4  c #885B18",
"5  c #8E4F09",
"6  c #8C641D",
"7  c #8D6518",
"8  c #92651D",
"9  c #946A1D",
"0  c #9B6C1C",
"q  c #956715",
"w  c #98690D",
"e  c #A6781C",
"r  c #AE7513",
"t  c #835D23",
"y  c #855C26",
"u  c #856225",
"i  c #8A6523",
"p  c #8D6B2B",
"a  c #886729",
"s  c #966C23",
"d  c #9B6D22",
"f  c #926D2B",
"g  c #956622",
"h  c #9D7223",
"j  c #94732D",
"k  c #9B762B",
"l  c #8B6C32",
"z  c #876B34",
"x  c #897138",
"c  c #947434",
"v  c #9C7B33",
"b  c #957B3A",
"n  c #9B7D3C",
"m  c #9A7735",
"M  c #986F34",
"N  c #A27524",
"B  c #A47926",
"V  c #A57C2B",
"C  c #AB7D2B",
"Z  c #A97A26",
"A  c #A57B36",
"S  c #B27F2E",
"D  c #987B43",
"F  c #957758",
"G  c #8D6C4C",
"H  c #947B66",
"J  c #A1704A",
"K  c #B6851A",
"L  c #B38107",
"P  c #9E823C",
"I  c #9A873D",
"U  c #AD822B",
"Y  c #AB8328",
"T  c #B2852C",
"R  c #B48A2D",
"E  c #B58725",
"W  c #B9932C",
"Q  c #A38235",
"!  c #AA8634",
"~  c #AD8A34",
"^  c #A3843B",
"/  c #AC8B3B",
"(  c #A7873B",
")  c #B38C33",
"_  c #B48D38",
"`  c #BB9433",
"'  c #B4933D",
"]  c #BC9C3C",
"[  c #BA9639",
"{  c #AE933D",
"}  c #C49C34",
"|  c #C49C3A",
" . c #C89727",
".. c #CBA52D",
"X. c #CCA335",
"o. c #CAA43B",
"O. c #CBAB3E",
"+. c #C4A239",
"@. c #D3AB3B",
"#. c #D4AA38",
"$. c #D5B23D",
"%. c #DBB43D",
"&. c #DEBA3D",
"*. c #DAB535",
"=. c #D2A92B",
"-. c #E2BC3E",
";. c #E6BB33",
":. c #E3BB2F",
">. c #CD9916",
",. c #EEC915",
"<. c #EBC53A",
"1. c #F8D63B",
"2. c #F0C930",
"3. c #9E8345",
"4. c #A38443",
"5. c #A58A43",
"6. c #AA8C44",
"7. c #AA8E4B",
"8. c #A68849",
"9. c #B18B45",
"0. c #AD9344",
"q. c #AA9549",
"w. c #B39545",
"e. c #B49944",
"r. c #BB9B44",
"t. c #B49B4C",
"y. c #BA9D4A",
"u. c #B49548",
"i. c #AC9951",
"p. c #B69B54",
"a. c #AE8D51",
"s. c #BCA344",
"d. c #BBA54C",
"f. c #B7A44C",
"g. c #B4A255",
"h. c #BBA353",
"j. c #BAA55B",
"k. c #BAAA58",
"l. c #BBA863",
"z. c #BDB277",
"x. c #A49074",
"c. c #C09F45",
"v. c #C3A543",
"b. c #CCAC43",
"n. c #C5AB4C",
"m. c #C6A848",
"M. c #D2AD47",
"N. c #CCB34B",
"B. c #CDB348",
"V. c #DBBC45",
"C. c #D4BA4B",
"Z. c #DABD4C",
"A. c #D4B646",
"S. c #C3AB53",
"D. c #C4AA58",
"F. c #C5B354",
"G. c #CDB453",
"H. c #CCB95C",
"J. c #C9B659",
"K. c #D4BC54",
"L. c #D2BC5B",
"P. c #D8BB55",
"I. c #E2BD41",
"U. c #C5B363",
"Y. c #C4B36A",
"T. c #CDBD6A",
"R. c #CBB966",
"E. c #D5BC67",
"W. c #C6B976",
"Q. c #C9B56C",
"!. c #DDC24B",
"~. c #D8C349",
"^. c #CEC35A",
"/. c #DBC354",
"(. c #D4C35E",
"). c #DCC55A",
"_. c #D7C555",
"`. c #E6C343",
"'. c #EAC544",
"]. c #ECCB44",
"[. c #E2CA4D",
"{. c #E6C949",
"}. c #F2CD46",
"|. c #EAD14C",
" X c #F5D245",
".X c #F6D44B",
"XX c #F9D64B",
"oX c #FCDA4D",
"OX c #FBD845",
"+X c #E1C653",
"@X c #E4CB53",
"#X c #E4CC5C",
"$X c #E8CA57",
"%X c #EBD454",
"&X c #EED955",
"*X c #E5D25D",
"=X c #EAD45B",
"-X c #EEDA5C",
";X c #E6D155",
":X c #FEDD52",
">X c #F2DD5A",
",X c #F5D855",
"<X c #F4CF55",
"1X c #F8E45B",
"2X c #CDC266",
"3X c #D5CB65",
"4X c #D9C667",
"5X c #DBD46B",
"6X c #CAC679",
"7X c #D7C777",
"8X c #DDD377",
"9X c #E3CB66",
"0X c #E5D463",
"qX c #E9D667",
"wX c #F2DD62",
"eX c #F2D763",
"rX c #E3CD72",
"tX c #E5D777",
"yX c #F4DF73",
"uX c #F5E262",
"iX c #F8E469",
"pX c #EAE578",
"aX c #F5E57A",
"sX c #ECEB73",
"dX c #B6B490",
"fX c #A89F98",
"gX c #C6BD88",
"hX c #D6CB84",
"jX c #D9D589",
"kX c #DADA9D",
"lX c #CEC894",
"zX c #E5D989",
"xX c #E4D896",
"cX c #F1D982",
"vX c #E7E589",
"bX c #F6EE85",
"nX c #F9F884",
"mX c #E9E598",
"MX c #F1E49E",
"NX c #D9D8AA",
"BX c #DADABB",
"VX c #CDCEAE",
"CX c #E3DCA9",
"ZX c #E0DDBC",
"AX c #E6E5A7",
"SX c #EEEBAF",
"DX c #DCDBC1",
"FX c #DEE1C1",
"GX c #E2E2C4",
"HX c None",
/* pixels */
"HXHXHXHXHXHXHXHXHXHXHXHXHXHXHXHXHXHXHXHXHXHXHXHXHXHXHXHXHXHXHXHXHXHXHXHXHXHXHXHXHXHXHXHXHXHXHXHXHXHXHXHXHXHXHXHXHXHXHXHXHXHXHXHX",
"HXHXHXHXHXHXHXHXHXHXHXHXHXHXHXHXHXHXHXHXHXHXHXHXHXHXHXHXHXHXHXHXHXHXHXHXHXHXHXHXHXHXHXHXHXHXHXHXHXHXHXHXHXHXHXHXHXHXHXHXHXHXHXHX",
"HXHXHXHXHXHXHXHXHXHXHXHXHXHXHXHXHXHXHXHXHXHXHXHXHXHXHXHXHXHXHXHXHXHXHXHXHXHXHXHXHXHXHXHXHXHXHXHXHXHXHXHXHXHXHXHXHXHXHXHXHXHXHXHX",
"HXHXHXHXHXHXHXHXHXHXHXHXHXHXHXHXHXHXHXHXHXHXHXHXHXHXHXHXHXHXHXHXHXHXHXHXHXHXHXHXHXHXHXHXHXHXHXHXHXHXHXHXHXHXHXHXHXHXHXHXHXHXHXHX",
"HXHXHXHXHXHXHXHXHXHXHXHXHXHXHXHXHXHXHXHXHXHXHXHXHXHXHXHXHXHXHXHXHXHXHXHXHXHXHXHXHXHXHXHXHXHXHXHXHXHXHXHXHXHXHXHXHXHXHXHXHXHXHXHX",
"HXHXHXHXHXHXHXHXHXHXHXHXHXHXHXHXHXHXHXHXHXHXHXHXHXHXHXHXHXvXmXmXAXAXNXHXHXHXHXHXHXHXHXHXHXHXHXHXHXHXHXHXHXHXHXHXHXHXHXHXHXHXHXHX",
"HXHXHXHXHXHXHXHXHXHXHXHXHXHXHXHXHXHXHXHXHXHXHXHX#XtX7X9X4XE.E.E.4XrXcXxXxXNXFXFXHXHXHXHXHXHXHXHXHXHXHXHXHXHXHXHXHXHXHXHXHXHXHXHX",
"HXHXHXHXHXHXHXHXHXHXHXHXHXHXHXHXHXHXHXHXHXX : ~ ) N 0 w r >.} E.M.;.'.$X$X|.9XxXCXDXGXHXHXHXHXHXHXHXHXHXHXHXHXHXHXHXHXHXHXHXHXHX",
"HXHXHXHXHXHXHXHXHXHXHXHXHXHXHXHXHXHXHXX 1 & & < 3.A q Z E E n.R.k.-.9XR.H.4XXXXX@X8XCXBXZXHXHXHXHXHXHXHXHXHXHXHXHXHXHXHXHXHXHXHX",
"HXHXHXHXHXHXHXHXHXHXHXHXHXHXHXHXHXHX1 $ > < , i.x d.y 0 Z E F.e.F.#.9XG.`.A..XyXbX*X1.@XCXGXHXHXHXHXHXHXHXHXHXHXHXHXHXHXHXHXHXHX",
"HXHXHXHXHXHXHXHXHXHXHXHXHXHXHXHXM.C a 3.i., O q.& 0.j 4 Z S H.h.H.o.).n.<X:XeX8X3X(.:XiX>X8XZXZXHXHXHXHXHXHXHXHXHXHXHXHXHXHXHXHX",
"HXHXHXHXHXHXHXHXHXHXHXHXHXHXHXqX} $ , x q.,   I b b / 5 0 S t.T f.] n.H.E.Z.aXE.tX).:XvX5X-X<.CXGXHXHXHXHXHXHXHXHXHXHXHXHXHXHXHX",
"HXHXHXHXHXHXHXHXHXHXHXHXHXHXpX' x g.<   < q.. & q.5.> 2 0 S T | v.M.V.b.$.+XE.L.pX~.aX5XV.vX+X1.xXGXHXHXHXHXHXHXHXHXHXHXHXHXHXHX",
"HXHXHXHXHXHXHXHXHXHXHXHXHXvX/ 5.k.I d.O . q.< . o - v s.D.J.D.U.j.Y.W.T.rX9XI..XF.$XbX$.aX5X{.nX].7XDXHXHXHXHXHXHXHXHXHXHXHXHXHX",
"HXHXHXHXHXHXHXHXHXHXHXHXzXc.q n F.I 5.o O , > + * A u.5.D D M 8.4.9.u.p.j.Q.W.rX|.%X2XtXpX$.bX8X2X].hXDXHXHXHXHXHXHXHXHXHXHXHXHX",
"HXHXHXHXHXHXHXHXHXHXHXMXD._ J.+ I _.< o $ o O & * * * = 4 A / ~ [ v.b.A.M.H.U.Q.gXrX]./.C.aXbXN.{.L.,.xXBXHXHXHXHXHXHXHXHXHXHXHX",
"HXHXHXHXHXHXHXHXHXHXSX8XE _ J.f 2 v t.+ & & x D D n n n 6.9.u.c.D.G.P.).4X4X*X&X*XW.hX&X&XtXZ.Z.XX,XcX,.CXVXHXHXHXHXHXHXHXHXHXHX",
"HXHXHXHXHXHXHXHXHXHXvXL T.4XqXd.5 4 * g * g 8.4.D D D 4.8.9.u.y.D.n.L.L.).*X>XuXwX=X7XgXqXV.(..X>XbXnX0X<.GXHXHXHXHXHXHXHXHXHXHX",
"HXHXHXHXHXHXHXHXHXAXM.>.R _ ' (.y.2 R g i 6.4.3 y 4 t f 8 s u.R.E.H.M.Z.9XqXqX0XqXuXeX3XlXqX*.qXnX3XpX^.2.rXDXHXHXHXHXHXHXHXHXHX",
"HXHXHXHXHXHXHXHXHXjX=.rXP.r r C j ] ~ 4 ( a.y i c l g A n D.D.6./ J.rX7XL.[.;X0XwXuXwXuX0XdX-X5XJ.rX2X$XyX2.ZXgXHXHXHXHXHXHXHXHX",
"HXHXHXHXHXHXHXHXAXA.9XR.5XL.b.r [ S.d ~ p.k 4 p k A 7.p.u.( f V _ R c.7XmXzX).!.1XeXwXqXuX4XlX<.0XnXtXpXsX;X9XNXHXHXHXHXHXHXHXHX",
"HXHXHXHXHXHXHXHXxXI.yXN.L.3XE.T L.w.w.u.6.0 2 4 8.D.D.^ 4 4 h C _ | O.| D.zXMXvX0X&X1XuXuX1X4XhX].^.(.tXsX^.2.CXdXHXHXHXHXHXHXHX",
"HXHXHXHXHXHXHXSX9XI.^.sXyXv.E P.S.c.r.w.C N q.Y.R./ 3 t f m A 8.A ` b.A.V.b.L.mXSXvXwXwXuXuX1XgX#X<XbX5X_.`.1.cXVXHXHXHXHXHXHXHX",
"HXHXHXHXHXHXHXNX<.<XV.X.^.3Xb.L.b.b.v.] _ ^ l.E.E.8.4.D D m c k V ` +.M.V.{.4XMXMXjX^.-X-X-X-X9XW.|.N.&.OXiX5X`.CXHXHXHXHXHXHXHX",
"HXHXHXHXHXHXHXxX X8XZ..XZ...P.N.@.b.| c.w.! 0 v t.H.n.A = ; 8 h V ) } o.H.zXxXhXS.~.1X1X=X-X-X1XW.+X1.OX-XsXB.2.MXdXHXHXHXHXHXHX",
"HXHXHXHXHXHXGXrXeXn.<.=X3XI.4XZ.C.N.v.| [ _ r./ A m k r.r.A i 6 h Q u.R.7XJ.v.O./.-X>X>X;X1X1X1X9XQ. XyXnXuX5X XaXVXHXHXHXHXHXHX",
"HXHXHXHXHXHXNX[.iXsXwX<X(.Z.4XA.Z.N.m.[ | r.U w A M z y p ' e.Q A y.D.w.( y.Z.@X~.|.&X-X;X1X&X-X0XW.`.5X^._.tXB.$XlXHXHXHXHXHXHX",
"HXHXHXHXHXHXNX1.$X5XsXbXJ.+X/.A.b.A.b.+.[ ~ 9.p.D.p.y.d.A t f ' e.Q f u.E.rXR.T.4X5X&X%X/.&X&X=X;Xz.P.:.<.<.*.%.'.kXHXHXHXHXHXHX",
"HXHXHXHXHXHXNX1.:X`.Z.C.'.9XL.+XZ.b.b.o.r.T.U.0.y.P v e.! ' v u u A h.y.m.n.~ O.k.R.8X~.[.%X%X0X=XW.E.<.].}. XXX2.xXHXHXHXHXHXHX",
"HXHXHXHXHXHXxX1.:X:X:X:XoX4XG.[.[.Z.b.m.U.k.0 A 4.3.e.( $ i Q ' u.w.v s w.J.d.H.!.&.F.n.~.;X[.@X|.Y.Q.2.`.'.'.}.2.zXdXHXHXHXHXHX",
"HXHXHXHXHXHXxX1.:X:X:X:X&X).[.[.[.[.A.o.G.t.! a.8.b Q v.i * ; u j t s B F.n.5.y.g.m.).d.~.[.[.!.|.H.Y.:.I.-.`.].2.7Xz.HXHXHXHXHX",
"HXHXHXHXHXBXzXOX:X:X:X:X,X2X&X=XP./.K.N.L.u.w.7.8.3.n Q r.v y y y l a u.u.Q q.t.h.m.~.f.V.~.!.!.!.D.Y.:.V.I.<.'.;.jXhXHXHXHXHXHX",
"HXHXHXHXHXHXzX1.1XoXoX:XXX2X+X/.P.K.K.N.H.' u.a.7.8.P x { s.w.e.r.6.y.n.P 5.0.t.t.e.B.f.b.V.~.K.Z.F.U.*.$.-.-.I.;.hX6XHXHXHXHXHX",
"HXHXHXHXHXHXxX1.:X:XoX:X.X2X&X&X|.[.~.$.R.{ j.p.7.^ v k a k f A / v ~ p j v Q 0.f.e.O.f.v.B.B.F.B.k.U.=.%.-.-.I.*.rX6XHXHXHXHXHX",
"HXHXHXHXHXHXkX1.1XoXoXoXXX3X>X,X=X$X+X/.2X] v.W K Y e 9 4 = ; m v & : = 7 0 k v 0.{ +.d.s.N.n.B.X.g.D.=.@.@.%.I.*.tXg.HXHXHXHXHX",
"HXHXHXHXHXHXkX1.:XoX:XoXXX/.>X&X*X#X/./.2XW =.v.y.r.w.( v p $ P ^ + : D 6.q.e.w.q.I Y f.~ +.] v.N.j.c...#.#.@.&.*.5XHXHXHXHXHXHX",
"HXHXHXHXHXHXNX.X:XoXoXoXOX#X*X=X*X%X|.+X2XT.7X6XY.j.h.t.0.t.4.5.4.D j.p.e.y.f.d.H.3XK.F./ v.` s.r.g.} X.X.X.#.*.O.8XHXHXHXHXHXHX",
"HXHXHXHXHXHXNX0XOX:XoXoXOX$X3X%X=X&X@X).zXY.y.) R ~ V k 6 3 P S.J.7.* o < z p p 7 j f.3XQ ' e.] q.g.W [ X.X.#.*.N.2XHXHXHXHXHXHX",
"HXHXHXHXHXHXNXtX1.oXoXoXOX X2X*X&X;X+X(.R.n.T.7X6XR.l.j.g.^ + b 6.o D D.D.S.F.F.J.k.P R.( ! e.' g.e.R [ } X.X...(.2XHXHXHXHXHXHX",
"HXHXHXHXHXHXHXkX1.:XoXOXOXOXZ.).&X%X%XV.J.hXl.f.) ~ ' v j w.q.7.i.p.U.c = : : u j I R.k.7 ! / / g.R W W } X.X.X.5Xf.HXHXHXHXHXHX",
"HXHXHXHXHXHXHXNX%XoXoXXXOX X].G.&X,X|.}.O...&.B.+.m.m.' h v j : : < * $ z < a a v v p c ( / ! i.y.Y ) W } } X.v.3XHXHXHXHXHXHXHX",
"HXHXHXHXHXHXHXkXtXOXXXoX.X X XV.^.XX%X@X/.!.N.B.] ' ~ ! Q ( s - = * * & a < u i v b v I P ( I h.C T ` ` ` }  .(.K.HXHXHXHXHXHXHX",
"HXHXHXHXHXHXHXHXjX<.oXXX X X X<.F._.;X)./.^.J.b.+.] R ! Q ~ j 3 = = , * * - = t 7 : 6 7 h 7 q.( e T R W ` } ` 0X{ HXHXHXHXHXHXHX",
"HXHXHXHXHXHXHXHXkX5XOXXX.X X'.V.#.k.(.@X~.V.B.v.] y.f.w.h / I c c x l l l l l l c p 6 f q 0.w.0 h Y R R `  .G.L.HXHXHXHXHXHXHXHX",
"HXHXHXHXHXHXHXHXHXjX{.oX X`.I.%.-.A.k.~.<.A.X.O.` ] e.Q h ( ^ P P n P b m b c m I k k 7 I e.0 B h k Y W  .) 0X/ HXHXHXHXHXHXHXHX",
"HXHXHXHXHXHXHXHXHXjX8X<.`.-.I.`.`.<.$.d.n.$.b.v.] f.] ! k A f i u t = - - - 3 = u Q P ( / 0 k B V V Z ~ Y K.N.HXHXHXHXHXHXHXHXHX",
"HXHXHXHXHXHXHXHXHXHXjXG.`.`.].].<.`.&.@.d.s.n.v.d.' [ ! / u.^ ^ n n m - = - = 3 - p ( Q 9 h h N C Y Y Z r.#XHXHXHXHXHXHXHXHXHXHX",
"HXHXHXHXHXHXHXHXHXHXHXtXb..X}.].'.I.V.&.=.v.d.N.[ R ] ~ k A k k s k m = = 3 3 3 s k s 7 s h k B V U E ) $X) HXHXHXHXHXHXHXHXHXHX",
"HXHXHXHXHXHXHXHXHXHXHXhXtX&. X].'.I.I.%.@.#.| } | T / _ C B h h 8 k ^ 4 4 3 = i s 6 8 d g d N N V U C +Xr.HXHXHXHXHXHXHXHXHXHXHX",
"HXHXHXHXHXHXHXHXHXHXHXHX6XtX&. X'.I.-.-.@.#.X.} } T d 3 = t : y = : > & & * y 8 6 g 8 g d M N Z C C A.[ HXHXHXHXHXHXHXHXHXHXHXHX",
"HXHXHXHXHXHXHXHXHXHXHXHXHX6XqX$.'.I.-.%.%.o.X.} } W ) V 7 4 ; ; % ; % 4 g 8 8 8 9 g g d d N N Z V M.} HXHXHXHXHXHXHXHXHXHXHXHXHX",
"HXHXHXHXHXHXHXHXHXHXHXHXHXHX6XtXM.I.I.-.%.#.o.| } W r K u._ 9./ 4.A A w 2 8 8 8 g 9 d d d N N C @.) HXHXHXHXHXHXHXHXHXHXHXHXHXHX",
"HXHXHXHXHXHXHXHXHXHXHXHXHXHXHX6XqXZ.V.I.%.#.#.} } } 7Xy.j.D.U.k.j.l.U.c z.v 8 g 9 0 d N N N S #.C HXHXHXHXHXHXHXHXHXHXHXHXHXHXHX",
"HXHXHXHXHXHXHXHXHXHXHXHXHXHXHXHXHXrX/.@.M.V.#.X.} ` zXy.9.l.k.g.y.t.U.8.vX4.q d d h N d N _ } g HXHXHXHXHXHXHXHXHXHXHXHXHXHXHXHX",
"HXHXHXHXHXHXHXHXHXHXHXHXHXHXHXHXHXHXgXtX*.#.@.M.X.} E K Q.p.U.j.t.i.Y.q w 0 h N N 0 N T } N y HXHXHXHXHXHXHXHXHXHXHXHXHXHXHXHXHX",
"HXHXHXHXHXHXHXHXHXHXHXHXHXHXHXHXHXHXHXdXW.P.X. .} o.| } [ _ ! C V V V B B N d h N T R k 4 HXHXHXHXHXHXHXHXHXHXHXHXHXHXHXHXHXHXHX",
"HXHXHXHXHXHXHXHXHXHXHXHXHXHXHXHXHXHXHXHXHXfXx.u.S e r U E T E U C C N N e N Z S V A Z HXHXHXHXHXHXHXHXHXHXHXHXHXHXHXHXHXHXHXHXHX",
"HXHXHXHXHXHXHXHXHXHXHXHXHXHXHXHXHXHXHXHXHXHXHXHXfXH F J M A C S C C S ! A n J z > HXHXHXHXHXHXHXHXHXHXHXHXHXHXHXHXHXHXHXHXHXHXHX",
"HXHXHXHXHXHXHXHXHXHXHXHXHXHXHXHXHXHXHXHXHXHXHXHXHXHXHXHXHXx.H G F F F F F HXHXHXHXHXHXHXHXHXHXHXHXHXHXHXHXHXHXHXHXHXHXHXHXHXHXHX",
"HXHXHXHXHXHXHXHXHXHXHXHXHXHXHXHXHXHXHXHXHXHXHXHXHXHXHXHXHXHXHXHXHXHXHXHXHXHXHXHXHXHXHXHXHXHXHXHXHXHXHXHXHXHXHXHXHXHXHXHXHXHXHXHX",
"HXHXHXHXHXHXHXHXHXHXHXHXHXHXHXHXHXHXHXHXHXHXHXHXHXHXHXHXHXHXHXHXHXHXHXHXHXHXHXHXHXHXHXHXHXHXHXHXHXHXHXHXHXHXHXHXHXHXHXHXHXHXHXHX",
"HXHXHXHXHXHXHXHXHXHXHXHXHXHXHXHXHXHXHXHXHXHXHXHXHXHXHXHXHXHXHXHXHXHXHXHXHXHXHXHXHXHXHXHXHXHXHXHXHXHXHXHXHXHXHXHXHXHXHXHXHXHXHXHX",
"HXHXHXHXHXHXHXHXHXHXHXHXHXHXHXHXHXHXHXHXHXHXHXHXHXHXHXHXHXHXHXHXHXHXHXHXHXHXHXHXHXHXHXHXHXHXHXHXHXHXHXHXHXHXHXHXHXHXHXHXHXHXHXHX",
"HXHXHXHXHXHXHXHXHXHXHXHXHXHXHXHXHXHXHXHXHXHXHXHXHXHXHXHXHXHXHXHXHXHXHXHXHXHXHXHXHXHXHXHXHXHXHXHXHXHXHXHXHXHXHXHXHXHXHXHXHXHXHXHX"
};
