/* XPM */
static char *_0051_d721e7f441cf200f2c2f4de923c08f43699480d0666b77d9421d9235e2c90f59[] = {
/* columns rows colors chars-per-pixel */
"32 32 210 2 ",
"   c #542A05",
".  c #684819",
"X  c #7A4D11",
"o  c #76561F",
"O  c #7A511A",
"+  c #7E5316",
"@  c #694E24",
"#  c #6C562A",
"$  c #7D5B24",
"%  c #73632C",
"&  c #7E6C2F",
"*  c #8A5E1B",
"=  c #80551E",
"-  c #99620B",
";  c #8C631A",
":  c #8B641D",
">  c #92661E",
",  c #946310",
"<  c #B67C14",
"1  c #815D21",
"2  c #8B6325",
"3  c #8D6927",
"4  c #84642B",
"5  c #8B6A2C",
"6  c #876328",
"7  c #946B22",
"8  c #9B6E22",
"9  c #966B27",
"0  c #94732E",
"q  c #9A792E",
"w  c #8A6E33",
"e  c #876D31",
"r  c #906E33",
"t  c #8A7436",
"y  c #957333",
"u  c #9E7635",
"i  c #9D7A32",
"p  c #967A3E",
"a  c #9C7C39",
"s  c #947539",
"d  c #A27423",
"f  c #A37925",
"g  c #A2742D",
"h  c #A37B2C",
"j  c #AB7D2A",
"k  c #AA7E24",
"l  c #A17D34",
"z  c #A17E39",
"x  c #A77A34",
"c  c #977A40",
"v  c #A87C42",
"b  c #9E813B",
"n  c #AE812B",
"m  c #A6802D",
"M  c #B68A2C",
"N  c #BC922E",
"B  c #A48334",
"V  c #AA8335",
"C  c #AD8B37",
"Z  c #A4853A",
"A  c #A9873A",
"S  c #A6893C",
"D  c #AB8C3E",
"F  c #B48C33",
"G  c #B98D32",
"H  c #B28D39",
"J  c #AF903D",
"K  c #BB9331",
"L  c #BC9B3C",
"P  c #B99539",
"I  c #C49C34",
"U  c #C39D3B",
"Y  c #C29730",
"T  c #CCA335",
"R  c #CBA839",
"E  c #D6AC35",
"W  c #D5AD3B",
"Q  c #D8AB3B",
"!  c #DBB236",
"~  c #DCB43B",
"^  c #DDB83F",
"/  c #E2BB3D",
"(  c #E3BB36",
")  c #DDC339",
"_  c #EBC43B",
"`  c #F2C937",
"'  c #9F8244",
"]  c #9D8C42",
"[  c #A18442",
"{  c #A78943",
"}  c #AB8D42",
"|  c #A78D49",
" . c #B08E44",
".. c #AD9448",
"X. c #A89144",
"o. c #B49442",
"O. c #B29946",
"+. c #BC9D42",
"@. c #B1954C",
"#. c #B49B4B",
"$. c #BA9C4A",
"%. c #A78052",
"&. c #B59D55",
"*. c #B5A14B",
"=. c #BCA246",
"-. c #BCA556",
";. c #BBA45C",
":. c #BEAB5B",
">. c #BEAD53",
",. c #B0936F",
"<. c #C4A442",
"1. c #CDAC44",
"2. c #C2A54C",
"3. c #C4AA4B",
"4. c #CAAE4D",
"5. c #C9A842",
"6. c #CDB247",
"7. c #CBB24D",
"8. c #D2B444",
"9. c #D1B54B",
"0. c #D6BB4A",
"q. c #D9BB4A",
"w. c #C3AB53",
"e. c #CCAD53",
"r. c #C5AC5A",
"t. c #C2A654",
"y. c #CDB652",
"u. c #CBB25B",
"i. c #CDBD5B",
"p. c #D6BA51",
"a. c #D0BC5A",
"s. c #D6B859",
"d. c #E1BD41",
"f. c #E2BE5A",
"g. c #C4AF61",
"h. c #CAB362",
"j. c #CAB862",
"k. c #D4BF6B",
"l. c #D9BE66",
"z. c #DFC045",
"x. c #DCC353",
"c. c #D3C058",
"v. c #DBC45A",
"b. c #DDC85B",
"n. c #DEC857",
"m. c #E8C242",
"M. c #E6C44B",
"N. c #E2CB4B",
"B. c #ECCB4A",
"V. c #E8C748",
"C. c #F2CC44",
"Z. c #EDD14D",
"A. c #F8D545",
"S. c #FFDB46",
"D. c #F5D34D",
"F. c #FEDC4E",
"G. c #F7D347",
"H. c #E3CC54",
"J. c #E3CD5B",
"K. c #E5C854",
"L. c #EBD355",
"P. c #E3D15B",
"I. c #EAD65D",
"U. c #EDD95A",
"Y. c #E7D85A",
"T. c #FFDF51",
"R. c #F3DD5B",
"E. c #F6D856",
"W. c #FBE357",
"Q. c #D4C562",
"!. c #DAC365",
"~. c #DCCB62",
"^. c #D5C36C",
"/. c #DDCC6A",
"(. c #D5C477",
"). c #DDCC7B",
"_. c #D7C872",
"`. c #E5CB65",
"'. c #E2D264",
"]. c #E3D26D",
"[. c #E8D46B",
"{. c #EBDC6A",
"}. c #EFDA63",
"|. c #F6D767",
" X c #FADF6C",
".X c #F7DB60",
"XX c #E2CD7B",
"oX c #E3D474",
"OX c #E4DB74",
"+X c #ECD77C",
"@X c #E7D476",
"#X c #F3DB76",
"$X c #F3E062",
"%X c #FDE167",
"&X c #EAE377",
"*X c #F4E47C",
"=X c #CFC58A",
"-X c #DCCF9A",
";X c #DAD49A",
":X c #E2CC82",
">X c #E3D385",
",X c #E5D48B",
"<X c #E4D992",
"1X c #E5D89C",
"2X c #E9D895",
"3X c #E9E293",
"4X c #D3CFA8",
"5X c #DED9B1",
"6X c #E2DCB1",
"7X c None",
/* pixels */
"7X7X7X7X7X7X7X7X7X7X7X7X7X7X7X7X7X7X7X7X7X7X7X7X7X7X7X7X7X7X7X7X",
"7X7X7X7X7X7X7X7X7X7X7X7X7X7X7X7X7X7X7X7X7X7X7X7X7X7X7X7X7X7X7X7X",
"7X7X7X7X7X7X7X7X7X7X7X7X7X7X7X7X7X7X7X7X7X7X7X7X7X7X7X7X7X7X7X7X",
"7X7X7X7X7X7X7X7X7X7X7Xg t.t.e.l.`.@X>X1X5X7X7X7X7X7X7X7X7X7X7X7X",
"7X7X7X7X7X7X7X7X7X# @ t b - < w.4.p.d.R.3X>X6X7X7X7X7X7X7X7X7X7X",
"7X7X7X7X7X7X7X7XB t t % ] 9 d =.3.p.K.oX'.T.*X1X7X7X7X7X7X7X7X7X",
"7X7X7X7X7X7X7Xr...% e @ e l  .$.t.u.s.J.J.@X'.R.2X7X7X7X7X7X7X7X",
"7X7X7X7X7X7Xj.0 *.e   . 1 a v { $.t.h.k.`.J.[.OX) 2X7X7X7X7X7X7X",
"7X7X7X7X7X(.4.>.7 3 O c c p z $.e.p.b.I.]._.'.H. X$X-X7X7X7X7X7X",
"7X7X7X7X<Xf.U o.A 8 v y 1 y  .$.r.!.`.L.R.[.(.J.OX'.%X4X7X7X7X7X",
"7X7X7X7XXX~.Q.U $.} Z * |  .a h K u.).OX}.W.{._.P.&XY.:X7X7X7X7X",
"7X7X7X7X|.n.a.7.4.+.h ;.r.y 3 u C R q.;X3X}.W.].!.P.B.#X4X7X7X7X",
"7X7X7X2X}.M.p.p.8.R H V } } y 7 m 3.k.k.n.R.U.R.Q.D.&XI.,X7X7X7X",
"7X7X7X>XI.{.v.x.7.<.+. .{ Z Z B S #.r.y.b.U.L.R.^.v.B.V.).7X7X7X",
"7X7X7X+XA.L.K.p.q.R t.@.} o.0 i S V 3.w.i.i.N.Z.Q.s._ ` [.7X7X7X",
"7X7X7X#XS.W.I.K.x.9.t.S [ { q 3 y l $.#.3.7.z.N.a.s./ _ `.7X7X7X",
"7X7X7X#XS.F.J.H.x.0.t.@.{ q B A S S u { O.3.6.0.u.7.! ( `.7X7X7X",
"7X7X7X+XS.F.L.U.L.n.w.<.J B 2 5 5 4 B D O.=.=.R >.<.E ! v.7X7X7X",
"7X7X7X>XS.F.L.P.L.J.^.g.:...b X.| c X.O.*.>.L L *.L T E a.7X7X7X",
"7X7X7X<XW.F.G.n.L.K.j.g.-.O.b b | [ ] b S -.S J O.G T W c.7X7X7X",
"7X7X7X7X%XS.G.M.Y.Z.9.6.U C B 5 $ $ $ $ 0 a b X.H M Y q.i.7X7X7X",
"7X7X7X7XoXS.D.m.7.b.x.6.L J B 0 6 % 4 5 5 ; B S k M Y y.7X7X7X7X",
"7X7X7X7X7X.X_ ) ^ 7.8.R =.J l u y w 5 5 q i Z 8 f k 1.y.7X7X7X7X",
"7X7X7X7X7X_.B.C.m.~ <.3.L F A l y 3 X + 3 q 8 f j M 7.7X7X7X7X7X",
"7X7X7X7X7X7X].C.d./ Q T G h 2 ; * 6 O * 7 > 8 d n 5.7X7X7X7X7X7X",
"7X7X7X7X7X7X7X~.B./ Q I K n l y r 2 * > > 7 8 j U 7X7X7X7X7X7X7X",
"7X7X7X7X7X7X7X7XQ.M.Q E <.h.;.:.-.;.&., 8 8 n G 7X7X7X7X7X7X7X7X",
"7X7X7X7X7X7X7X7X7X=Xs.Q T Y $.o.} } f d j j h 7X7X7X7X7X7X7X7X7X",
"7X7X7X7X7X7X7X7X7X7X7X,.%.v V x j h g g g 7X7X7X7X7X7X7X7X7X7X7X",
"7X7X7X7X7X7X7X7X7X7X7X7X7X7X7X7X7X7X7X7X7X7X7X7X7X7X7X7X7X7X7X7X",
"7X7X7X7X7X7X7X7X7X7X7X7X7X7X7X7X7X7X7X7X7X7X7X7X7X7X7X7X7X7X7X7X",
"7X7X7X7X7X7X7X7X7X7X7X7X7X7X7X7X7X7X7X7X7X7X7X7X7X7X7X7X7X7X7X7X"
};
