/* XPM */
static char *_9148_49093f5f7cbcc9d00361e3c64e1b4689cff905a7b6e8d3665a22a26a889064c7[] = {
/* columns rows colors chars-per-pixel */
"16 16 144 2 ",
"   c #665021",
".  c #7F6D35",
"X  c #91661D",
"o  c #825D22",
"O  c #895F20",
"+  c #85652A",
"@  c #81632C",
"#  c #8D6B2A",
"$  c #8B682F",
"%  c #96742D",
"&  c #94742F",
"*  c #9D7428",
"=  c #98732C",
"-  c #9A762D",
";  c #8F6D31",
":  c #8F7033",
">  c #977532",
",  c #947034",
"<  c #9A7330",
"1  c #9C7130",
"2  c #987730",
"3  c #9B7B30",
"4  c #9B7A33",
"5  c #9F7B30",
"6  c #987934",
"7  c #947939",
"8  c #A47421",
"9  c #AD7D28",
"0  c #A47633",
"q  c #A87D40",
"w  c #9E813B",
"e  c #AD802C",
"r  c #B0872C",
"t  c #BB8F2F",
"y  c #A78133",
"u  c #AB8237",
"i  c #A3823B",
"p  c #A3863B",
"a  c #A5853B",
"s  c #A3853F",
"d  c #A2893C",
"f  c #A2883E",
"g  c #A5883D",
"h  c #B38C35",
"j  c #BC9437",
"k  c #B5943B",
"l  c #B2913E",
"z  c #B7963D",
"x  c #B7973D",
"c  c #C39B3E",
"v  c #CEA534",
"b  c #DCB33D",
"n  c #9C8142",
"m  c #A98840",
"M  c #AB8D43",
"N  c #AD8C42",
"B  c #AA8D47",
"V  c #AE8F44",
"C  c #B59343",
"Z  c #B29643",
"A  c #BB9941",
"S  c #B5984B",
"D  c #B69A4B",
"F  c #B39E4B",
"G  c #AB8352",
"H  c #BB9F50",
"J  c #B9A045",
"K  c #BAA04A",
"L  c #C1A040",
"P  c #CEA646",
"I  c #CAA841",
"U  c #CBAB43",
"Y  c #C9AC45",
"T  c #CBAC47",
"R  c #C9AE47",
"E  c #C0A54F",
"W  c #C7AB4C",
"Q  c #CFAF4E",
"!  c #D6AF49",
"~  c #CDB34B",
"^  c #DAB742",
"/  c #D4B74A",
"(  c #D3B84B",
")  c #C1A651",
"_  c #C3A653",
"`  c #CCB551",
"'  c #C4B15D",
"]  c #CEB45A",
"[  c #CFBB58",
"{  c #D7BE59",
"}  c #E8BF40",
"|  c #CCB761",
" . c #D1BA63",
".. c #D5BE61",
"X. c #D7BF6A",
"o. c #D9C052",
"O. c #DDC652",
"+. c #DFC256",
"@. c #DEC756",
"#. c #EFCB40",
"$. c #E0CA4F",
"%. c #F6CD43",
"&. c #F6CD45",
"*. c #FDD74B",
"=. c #E2CA57",
"-. c #E2C95E",
";. c #EED251",
":. c #EBD357",
">. c #E5D059",
",. c #E6D25F",
"<. c #EEDA5A",
"1. c #FFE953",
"2. c #FFE758",
"3. c #DBC562",
"4. c #DCC566",
"5. c #DFCB65",
"6. c #DCC979",
"7. c #E1CE63",
"8. c #E4CD61",
"9. c #E6CE6B",
"0. c #E2D163",
"q. c #E4D061",
"w. c #E7D366",
"e. c #E6D369",
"r. c #F7DE61",
"t. c #F6DC67",
"y. c #F6DE67",
"u. c #F9DB60",
"i. c #E1CC70",
"p. c #E1D171",
"a. c #ECD870",
"s. c #E1D078",
"d. c #E5D07E",
"f. c #EDDC78",
"g. c #F0E06F",
"h. c #F9E66F",
"j. c #FCE96F",
"k. c #DBCB80",
"l. c #E4D287",
"z. c #EBDB86",
"x. c #EDD988",
"c. c #E3D490",
"v. c #E9DC97",
"b. c None",
/* pixels */
"b.b.b.b.b.b.b.b.b.b.b.b.b.b.b.b.",
"b.b.b.b.b.b.b.X.d.b.b.b.b.b.b.b.",
"b.b.b.b.7 . y c +.t.f.v.b.b.b.b.",
"b.b.b.' d   : N ) ..7.h.l.b.b.b.",
"b.b.6.Q = $ , V ] q.e.5.j.c.b.b.",
"b.b.9.~ A m B < L s.g.w.0.a.b.b.",
"b.b.y.o.U C M - l  .,.<.-.r.k.b.",
"b.x.2.=./ S s 3 i K ` $.{ %.i.b.",
"b.z.1.:.@.E a 2 6 g J R W } 3.b.",
"b.b.2.;.>.| D w n f F Z z b [ b.",
"b.b.u.#.O.( x 4 @ + & p r I b.b.",
"b.b.p.*.^ Y k 5 # o % * t T b.b.",
"b.b.b.8.&.v h > ; O X 9 j b.b.b.",
"b.b.b.b.4.! P _ H u 8 e b.b.b.b.",
"b.b.b.b.b.b.G q 0 1 b.b.b.b.b.b.",
"b.b.b.b.b.b.b.b.b.b.b.b.b.b.b.b."
};
